<?xml version="1.0" standalone="no"?><!DOCTYPE svg PUBLIC "-//W3C//DTD SVG 1.1//EN" "http://www.w3.org/Graphics/SVG/1.1/DTD/svg11.dtd"><svg t="1589632234592" class="icon" viewBox="0 0 1024 1024" version="1.1" xmlns="http://www.w3.org/2000/svg" p-id="2065" xmlns:xlink="http://www.w3.org/1999/xlink" width="200" height="200"><defs><style type="text/css"></style></defs><path d="M512 993.882353C245.850353 993.882353 30.117647 778.119529 30.117647 512 30.117647 245.850353 245.850353 30.117647 512 30.117647 778.119529 30.117647 993.882353 245.850353 993.882353 512 993.882353 778.119529 778.119529 993.882353 512 993.882353ZM512 90.352941C279.130353 90.352941 90.352941 279.130353 90.352941 512 90.352941 744.869647 279.130353 933.647059 512 933.647059 744.869647 933.647059 933.647059 744.869647 933.647059 512 933.647059 279.130353 744.869647 90.352941 512 90.352941ZM451.764706 722.823529 572.235294 722.823529 572.235294 813.176471 451.764706 813.176471 451.764706 722.823529ZM466.823529 662.588235 451.764706 210.823529 572.235294 210.823529 557.176471 662.588235 466.823529 662.588235Z" p-id="2066" fill="#707070"></path></svg>